<svg xmlns="http://www.w3.org/2000/svg" width="26" height="18" fill="none" viewBox="0 0 26 18">
  <path fill="red" fill-rule="evenodd" d="M22.726.602a3.2 3.2 0 0 1 2.256 2.257c.532 1.989.532 6.141.532 6.141s0 4.152-.532 6.141a3.2 3.2 0 0 1-2.256 2.257c-1.99.531-9.969.531-9.969.531s-7.976 0-9.969-.531A3.2 3.2 0 0 1 .532 15.14C0 13.152 0 9 0 9s0-4.152.532-6.141A3.2 3.2 0 0 1 2.788.602C4.781.07 12.757.07 12.757.07s7.98 0 9.969.532ZM16.835 9l-6.628 3.828V5.172L16.836 9Z" clip-rule="evenodd"/>
</svg>
